<svg width="500" height="500" viewBox="0 0 500 500" fill="none" xmlns="http://www.w3.org/2000/svg">
<path d="M203.685 250.577H286.404C298.983 250.577 309.593 246.511 318.234 238.379C327.001 230.247 331.385 218.684 331.385 203.69C331.385 192.635 326.811 182.724 317.662 173.957C308.513 165.062 298.094 160.615 286.404 160.615H168.615V407.629H154.892V146.892H286.404C301.906 146.892 315.565 152.673 327.382 164.236C339.199 175.672 345.108 188.823 345.108 203.69C345.108 221.987 339.39 236.663 327.954 247.718C316.518 258.773 302.668 264.3 286.404 264.3H203.685V250.577ZM203.685 278.023H286.404C306.226 278.023 323.253 271.098 337.484 257.248C351.715 243.271 358.831 225.418 358.831 203.69C358.831 185.011 351.525 168.62 336.912 154.516C322.427 140.285 305.591 133.169 286.404 133.169H141.169V407.629H127.446V119.446H286.404C301.525 119.446 315.693 123.321 328.907 131.072C342.249 138.823 352.859 149.243 360.737 162.33C368.615 175.291 372.554 189.078 372.554 203.69C372.554 228.722 364.041 249.687 347.014 266.587C330.114 283.36 309.911 291.746 286.404 291.746H203.685V278.023ZM203.685 305.469H286.404C304.193 305.469 320.712 301.085 335.959 292.318C351.207 283.55 363.405 271.352 372.554 255.723C381.703 239.967 386.277 222.623 386.277 203.69C386.277 186.536 381.703 170.463 372.554 155.469C363.532 140.348 351.334 128.277 335.959 119.255C320.585 110.234 304.066 105.723 286.404 105.723H113.723V407.629H100V92H286.404C306.353 92 325.095 97.1461 342.63 107.438C360.165 117.604 374.079 131.327 384.371 148.607C394.79 165.761 400 184.122 400 203.69C400 226.307 395.108 246.193 385.324 263.347C375.667 280.501 362.516 293.906 345.87 303.563L381.321 407.629H366.836L332.91 310.043C327.827 312.076 323.952 313.474 321.283 314.236L353.113 407.629H338.628L307.56 317.476C306.417 317.731 302.351 318.175 295.362 318.811L324.905 407.629H310.419L281.258 319.192H268.869L296.696 407.629H282.211L254.193 319.192H203.685V305.469ZM196.061 407.629H182.338V174.338H286.404C294.917 174.338 302.224 177.26 308.323 183.105C314.549 188.823 317.662 195.685 317.662 203.69C317.662 225.799 307.243 236.854 286.404 236.854H203.685V223.131H286.404C291.868 223.131 296.125 221.733 299.174 218.938C302.351 216.015 303.939 210.933 303.939 203.69C303.939 199.243 302.224 195.558 298.793 192.635C295.489 189.586 291.36 188.061 286.404 188.061H196.061V407.629Z" fill="white"/>
</svg>
