<svg width="500" height="500" viewBox="0 0 500 500" fill="none" xmlns="http://www.w3.org/2000/svg">
<g clip-path="url(#clip0_0_3)">
<circle cx="250" cy="250" r="250" fill="white"/>
<g clip-path="url(#clip1_0_3)">
<path d="M393.832 379.984C393.832 379.984 390.203 383.799 389.749 384.28C390.23 384.733 398.448 392.551 398.448 392.551L393.805 397.407C393.805 397.407 385.587 389.589 385.107 389.136C384.68 389.589 381.184 393.272 380.758 393.725C381.238 394.179 389.429 401.997 389.429 401.997C389.429 401.997 383.746 407.974 383.266 408.454C383.693 408.881 386.894 411.896 387.321 412.323C387.802 411.816 416.912 381.238 417.419 380.731C416.966 380.304 413.79 377.289 413.363 376.862C412.883 377.369 402.797 387.962 402.797 387.962C402.797 387.962 394.579 380.144 394.099 379.69C393.965 379.85 393.805 379.984 393.805 379.984H393.832Z" fill="#76777A"/>
<path d="M406.133 375.368C405.626 374.887 388.736 358.798 388.229 358.291C388.095 358.451 387.935 358.584 387.935 358.584C387.935 358.584 362.667 385.133 362.16 385.64C362.587 386.067 365.762 389.082 366.216 389.483C366.723 388.976 387.935 366.696 387.935 366.696C387.935 366.696 401.303 379.423 401.81 379.904L406.159 375.341L406.133 375.368Z" fill="#76777A"/>
<path d="M96.6425 388.656C92.2132 392.791 92.3733 400.156 96.9626 405.092C101.579 410.028 108.916 410.669 113.346 406.533C117.775 402.397 117.615 395.006 112.999 390.096C108.383 385.16 101.045 384.52 96.6158 388.682L96.6425 388.656ZM100.698 392.898C103.046 390.71 106.969 391.03 109.397 393.618C111.825 396.233 111.905 400.129 109.557 402.344C107.209 404.558 103.313 404.238 100.832 401.623C98.4035 399.008 98.3501 395.086 100.698 392.898Z" fill="#76777A"/>
<path d="M137.146 383.959C137.146 383.959 133.678 380.251 133.251 379.824C132.797 380.251 128.208 384.546 128.208 384.546C128.208 384.546 123.725 379.744 123.298 379.29C122.871 379.69 119.803 382.572 119.376 382.972C119.803 383.426 124.286 388.229 124.286 388.229C124.286 388.229 118.122 393.992 117.642 394.446C118.042 394.873 121.377 398.448 121.804 398.875C122.311 398.421 136.933 384.707 137.44 384.253C137.307 384.093 137.173 383.959 137.173 383.959H137.146Z" fill="#76777A"/>
<path d="M118.549 363.921C118.549 363.921 96.2155 364.855 95.5218 364.881C95.5752 365.495 95.8954 370.378 95.9487 370.992C96.6158 370.938 112.438 370.058 112.438 370.058C112.438 370.058 110.517 384.92 110.411 385.587C110.998 385.667 115.854 386.334 116.468 386.414C116.548 385.72 118.949 364.721 119.029 363.948C118.789 363.948 118.549 363.948 118.549 363.948V363.921Z" fill="#76777A"/>
<path d="M301.484 458.243L307.514 457.203L300.657 417.393C300.47 417.446 300.256 417.473 300.256 417.473C300.256 417.473 295.24 418.326 294.626 418.433C294.733 419.1 296.734 430.68 296.734 430.68L293.159 431.294C293.159 431.294 291.158 419.741 291.051 419.047L284.941 420.087L289.29 445.356C284.46 446.183 270.132 448.638 270.132 448.638L266.77 429.186C266.77 429.186 280.245 426.865 280.912 426.758L280.058 421.715C280.058 421.715 280.031 421.715 279.978 421.715L259.913 425.157C261.14 432.335 264.956 454.428 265.062 454.988L290.197 450.666L291.771 459.844L297.882 458.804C297.775 458.137 294.039 436.551 294.039 436.551L297.588 435.937C297.588 435.937 301.297 457.496 301.404 458.163L301.484 458.243Z" fill="#76777A"/>
<path d="M178.424 427.585C178.424 427.585 177.757 427.212 176.556 426.598L184.054 412.51C183.867 412.403 183.681 412.323 183.681 412.323C183.681 412.323 152.115 395.513 151.502 395.193L148.913 400.022C149.527 400.342 175.996 414.431 175.996 414.431C175.996 414.431 172.981 420.061 171.087 423.663L141.576 407.947L139.014 412.776C139.601 413.097 150.621 418.94 150.621 418.94C150.621 418.94 147.526 424.73 147.232 425.291L152.756 428.252C153.049 427.692 156.144 421.902 156.144 421.902L161.081 424.517C161.081 424.517 158.012 430.307 157.692 430.867L163.242 433.829C163.535 433.269 166.631 427.479 166.631 427.479C166.631 427.479 175.649 432.281 176.236 432.602L178.798 427.772C178.638 427.692 178.451 427.585 178.451 427.585H178.424ZM145.151 420.354L139.708 417.446L132.957 430.147L166.15 447.837L168.739 443.008C168.125 442.688 140.989 428.226 140.989 428.226C140.989 428.226 144.858 420.941 145.178 420.354H145.151Z" fill="#76777A"/>
<path d="M204.653 444.876C204.44 444.849 204.253 444.822 204.253 444.822C204.253 444.822 199.157 444.022 198.543 443.942L196.302 458.163L233.737 464.034L234.591 458.617C233.924 458.51 203.266 453.707 203.266 453.707C203.266 453.707 204.546 445.569 204.653 444.902V444.876ZM238.593 431.107C238.593 431.107 239.581 424.757 239.687 424.117C239.5 424.117 239.314 424.063 239.314 424.063C239.314 424.063 234.244 423.263 233.604 423.156L231.015 439.646L224.825 438.685L227.28 422.916C227.093 422.889 226.88 422.862 226.88 422.862C226.88 422.862 201.985 418.967 201.291 418.833L200.437 424.25C201.104 424.357 220.316 427.372 220.316 427.372C220.316 427.372 219.195 434.496 218.688 437.725C215.219 437.191 212.551 436.764 212.551 436.764C212.551 436.764 213.378 431.614 213.458 431.001C213.272 431.001 213.058 430.947 213.058 430.947C213.058 430.947 207.855 430.12 207.241 430.04C207.135 430.654 206.334 435.803 206.334 435.803C206.334 435.803 197.529 434.416 196.889 434.336L196.035 439.752L230.108 445.089L229.121 451.413L235.205 452.373C235.311 451.706 237.686 436.471 237.686 436.471C237.686 436.471 243.316 437.351 243.956 437.458L244.784 432.068C244.17 431.961 238.54 431.081 238.54 431.081L238.593 431.107Z" fill="#76777A"/>
<path d="M349.059 393.485C349.059 393.485 344.629 395.94 344.069 396.26C344.416 396.847 355.276 416.459 355.623 417.046C356.156 416.752 360.425 414.377 360.959 414.084C360.639 413.497 355.409 404.051 355.409 404.051C355.409 404.051 360.265 401.356 360.826 401.036C360.559 400.529 358.504 396.847 358.237 396.34C357.677 396.634 352.821 399.328 352.821 399.328C352.821 399.328 349.779 393.832 349.459 393.272C349.299 393.378 349.112 393.485 349.112 393.485H349.059Z" fill="#76777A"/>
<path d="M361.893 416.752C361.893 416.752 329.234 434.87 328.647 435.19C328.94 435.723 330.995 439.432 331.288 439.939C331.875 439.592 359.572 424.25 359.572 424.25C359.572 424.25 363.28 430.921 363.601 431.508C364.134 431.214 368.403 428.839 368.937 428.546C368.617 427.959 362.613 417.126 362.267 416.565C362.08 416.645 361.92 416.752 361.92 416.752H361.893Z" fill="#76777A"/>
<path d="M338.919 399.942L329.02 405.439C329.02 405.439 329.02 405.439 328.993 405.439L327.179 402.184L321.763 405.172L323.577 408.454L313.491 414.031L316.026 418.567L319.655 416.565C319.495 418.7 319.895 420.888 321.015 422.889C324.164 428.546 331.582 430.467 337.559 427.132C343.535 423.823 345.857 416.512 342.708 410.855C341.588 408.854 339.96 407.36 338.066 406.373L341.428 404.478L338.919 399.969V399.942ZM334.784 421.849C331.902 423.449 328.353 422.516 326.859 419.794C325.338 417.072 326.459 413.604 329.314 412.003C332.169 410.402 335.717 411.336 337.238 414.057C338.733 416.779 337.639 420.248 334.784 421.849Z" fill="#76777A"/>
<path d="M459.578 266.263L454.908 263.328C459.818 261.087 459.978 256.177 459.978 256.177C460.165 252.335 457.923 249.586 454.641 249.613C450.319 249.64 448.718 253.482 446.903 257.911C444.929 262.661 441.887 267.677 435.83 268.024C428.492 268.478 423.529 261.994 423.903 253.082C424.277 244.41 430.253 240.248 430.253 240.248L435.75 242.782C435.75 242.782 428.012 245.344 427.505 254.683C427.292 258.819 430.307 262.02 434.363 261.994C438.685 261.967 440.233 258.258 442.02 253.962C444.022 249.133 446.263 243.69 453.174 243.636C459.924 243.583 464.007 248.919 463.607 257.244C463.607 257.244 463.5 262.554 459.551 266.316L459.578 266.263Z" fill="#76777A"/>
<path d="M54.4841 327.019L59.954 327.606C56.512 331.795 58.5399 336.278 58.5399 336.278C60.0608 339.8 63.2627 341.321 66.1977 339.853C70.0934 337.932 69.8266 333.796 69.5331 329.02C69.2395 323.87 69.7732 318.054 75.0563 315.065C81.4601 311.463 88.7444 315.119 92.3199 323.283C95.7886 331.235 92.2398 337.585 92.2398 337.585L86.1562 337.719C86.1562 337.719 92.0264 332.035 88.3709 323.417C86.7699 319.601 82.6342 318.054 79.0053 319.841C75.1097 321.763 75.3498 325.765 75.6433 330.408C75.9635 335.611 76.3104 341.508 70.1468 344.576C64.1165 347.565 58.0863 344.576 54.831 336.918C54.831 336.918 52.5897 332.089 54.5108 326.992L54.4841 327.019Z" fill="#76777A"/>
<path d="M48.534 189.951L48.1337 190.325C47.44 191.045 43.4376 195.208 41.7032 203.506C39.0617 216.207 44.9852 225.626 56.6454 228.054C68.5725 230.535 77.2443 224.612 79.8325 212.178C80.8464 207.321 81.0332 202.332 80.3928 197.315L80.3395 196.835L65.8242 193.82L64.5968 199.744L76.8441 202.252C77.5378 205.107 77.271 208.042 76.8441 210.043C74.8429 219.649 68.0655 223.758 57.7127 221.597C48.0537 219.595 43.1174 213.218 44.9318 204.386C45.8657 199.93 48.7741 195.581 52.3762 193.527L52.6431 193.366L48.5073 189.924L48.534 189.951Z" fill="#76777A"/>
<path d="M85.169 114.333L81.7803 119.162L90.3721 137.093L70.547 135.145L66.2244 141.282L92.0264 142.75C92.3466 142.963 104.941 151.795 104.941 151.795L108.409 146.859C108.409 146.859 95.3884 137.733 95.0949 137.547L85.1423 114.306L85.169 114.333Z" fill="#76777A"/>
<path d="M438.098 350.953L440.473 345.563L428.546 329.661L448.371 327.713L451.413 320.829L425.824 324.431C425.477 324.271 411.389 318.054 411.389 318.054L408.961 323.577C408.961 323.577 423.529 329.981 423.823 330.114L438.125 350.953H438.098Z" fill="#76777A"/>
<path d="M73.2953 167.058L65.2905 143.71L62.5689 149.207L70.1201 171.167C69.1061 170.66 55.3647 163.909 55.3647 163.909L52.6964 169.326L86.5832 185.975L89.2514 180.559L72.8417 172.501L96.0288 166.817L99.3908 159.933L73.2953 167.084V167.058Z" fill="#76777A"/>
<path d="M186.296 65.4773L197.449 43.4376L191.605 45.3321L181.146 66.0377C180.772 64.9437 176.076 50.3751 176.076 50.3751L170.313 52.2428L182 88.1574L187.736 86.2897L182.08 68.8927L202.332 81.5402L209.616 79.1654L186.296 65.4507V65.4773Z" fill="#76777A"/>
<path d="M217.808 77.3777L222.317 76.9241L229.414 47.0931L241.608 75.003L246.785 74.496L255.563 35.673L250.36 36.18L243.263 66.8915L230.695 38.1545L227.253 38.5013L220.236 69.1328L208.362 40.3958L202.012 41.0095L217.808 77.3777Z" fill="#76777A"/>
<path d="M276.429 38.4747L273.761 38.1545L253.082 74.1758L258.232 74.8162L265.836 61.2882L277.416 62.6757L281.419 77.5912L288.463 78.445L276.429 38.448V38.4747ZM273.441 46.7462C274.081 48.9609 276.029 57.4993 276.482 58.9935L267.277 57.8728L273.441 46.7462Z" fill="#76777A"/>
<path d="M424.422 128.257L393.18 149.41L396.546 154.381L427.788 133.228L424.422 128.257Z" fill="#76777A"/>
<path d="M423.228 274.645L422.278 280.573L459.531 286.546L460.482 280.618L423.228 274.645Z" fill="#76777A"/>
<path d="M367.977 98.4836C362.72 106.168 357.17 107.422 351.247 103.366C344.576 98.8038 344.336 94.1877 349.913 86.0495L361.813 68.6526L356.877 65.2906L344.683 83.1145C342.121 86.9834 339.72 91.386 340.787 95.8954C341.721 99.8177 344.389 103.206 348.765 106.195C357.117 111.932 364.935 110.491 370.778 101.979L383.452 83.4613L379.904 81.0332L367.977 98.4836Z" fill="#76777A"/>
<path d="M124.099 105.021C130.636 111.665 130.796 117.348 125.673 122.391C119.91 128.048 115.347 127.381 108.436 120.337L93.6807 105.314L89.4115 109.503L104.54 124.899C107.849 128.181 111.691 131.383 116.334 131.196C120.337 131.036 124.205 129.088 127.994 125.379C135.225 118.282 135.332 110.331 128.101 102.966L112.358 86.9567L109.29 89.9718L124.099 105.047V105.021Z" fill="#76777A"/>
<path d="M60.9146 283.1C69.9867 280.938 74.9496 283.74 76.6039 290.704C78.4717 298.575 75.5633 302.124 65.9843 304.419L45.4922 309.302L46.8796 315.119L67.8788 310.102C72.3881 308.955 77.1109 307.327 79.3255 303.245C81.2734 299.723 81.7803 295.374 80.5529 290.224C78.2049 280.378 71.2674 276.216 61.2348 278.617L39.3819 283.82L40.3691 288.009L60.9146 283.1Z" fill="#76777A"/>
<path d="M405.065 168.525L406.613 171.567L447.437 168.365L444.929 163.509L412.803 166.684L434.042 142.376L430.947 136.373L405.065 168.525Z" fill="#76777A"/>
<path d="M419.607 191.659C420.728 191.312 431.668 187.843 432.762 187.47L436.737 199.957L440.393 198.783L436.444 186.296C437.511 185.949 447.277 182.854 448.344 182.533L452.64 196.141L455.735 195.154L449.625 175.863L413.657 187.256L419.874 206.868L424.063 205.534L419.661 191.605L419.607 191.659Z" fill="#76777A"/>
<path d="M458.777 293.532L455.762 292.679L452.587 303.965C451.359 303.618 419.287 294.626 419.287 294.626L417.659 300.39L450.959 309.729L447.971 320.535L451.012 321.362L458.804 293.532H458.777Z" fill="#76777A"/>
<path d="M421.502 212.791L422.249 218.741L440.446 216.313L424.383 234.804L425.237 241.155L441.3 222.771C442.367 228.908 447.357 233.764 452.773 233.043C458.964 232.216 461.605 227.947 460.511 219.622L458.937 207.802L421.502 212.765V212.791ZM443.995 215.86C445.089 215.726 455.388 214.339 456.482 214.205L457.229 219.889C457.843 224.585 455.362 226.96 451.973 227.253C448.424 227.573 445.516 226.106 444.662 220.796L443.995 215.86Z" fill="#76777A"/>
<path d="M150.381 61.3949L146.725 63.7163L161.134 86.3697C147.873 82.9544 124.739 77.6712 124.739 77.6712L122.151 79.2989L142.376 111.158L146.032 108.836C146.032 108.836 137.627 95.5752 130.876 84.9822L168.445 94.6146L170.633 93.2271L150.381 61.3682V61.3949Z" fill="#76777A"/>
<path d="M36.9271 237.259L37.0071 241.582L63.8497 241.021C54.0572 250.6 37.5675 267.65 37.5675 267.65L37.6208 270.692L75.3498 269.892L75.2431 265.569C75.2431 265.569 59.5538 265.916 46.9864 266.183L74.6828 239.047L74.6294 236.459L36.9004 237.286L36.9271 237.259Z" fill="#76777A"/>
<path d="M333.263 53.577L329.154 52.1895L320.589 77.6445C314.905 65.1838 304.446 43.8912 304.446 43.8912L301.537 42.904L289.503 78.6852L293.586 80.0727C293.586 80.0727 298.602 65.1838 302.605 53.2834L318.747 88.531L321.202 89.3582L333.209 53.577H333.263Z" fill="#76777A"/>
<path d="M416.912 117.188L413.977 114.039L394.312 132.317C395.273 118.656 396.233 94.9348 396.233 94.9348L394.152 92.6935L366.509 118.389L369.444 121.537C369.444 121.537 380.944 110.838 390.15 102.272L387.535 140.962L389.296 142.857L416.912 117.135V117.188Z" fill="#76777A"/>
<path d="M263.568 202.839C263.541 171.994 288.436 146.966 319.174 146.939C326.619 146.939 333.716 148.406 340.2 151.048C290.891 105.661 214.125 106.915 166.364 154.81C120.096 201.211 117.668 274.748 158.973 324.004C169.646 309.996 184.268 293.799 202.252 281.125C216.26 271.226 235.738 261.353 251.401 259.833C266.21 258.418 288.303 259.833 301.671 266.21C291.211 255.51 280.191 243.503 274.775 236.325C267.757 227.013 263.595 215.406 263.568 202.812V202.839Z" fill="url(#paint0_linear_0_3)"/>
<path d="M259.646 243.663L200.651 130.369C189.791 135.626 179.518 142.51 170.233 151.101L259.272 243.53L259.646 243.663Z" fill="url(#paint1_linear_0_3)"/>
<path d="M259.966 243.77L267.57 118.549C257.404 117.562 247.132 117.775 237.019 119.269L259.859 243.743L259.966 243.796V243.77Z" fill="url(#paint2_linear_0_3)"/>
<path d="M259.272 243.503L137.974 198.623C133.865 209.376 131.303 220.609 130.262 231.923L259.592 243.823L259.272 243.503Z" fill="url(#paint3_linear_0_3)"/>
<path d="M131.063 261.647C132.344 270.399 134.558 279.017 137.68 287.396L259.246 244.143L131.09 261.647H131.063Z" fill="url(#paint4_linear_0_3)"/>
<path d="M156.678 354.662C153.023 351.487 146.779 345.59 141.176 338.386C115.507 309.675 86.1296 234.271 134.772 165.803C154.837 137.573 183.654 118.549 212.311 110.811C279.124 92.7735 330.514 124.286 354.048 149.714C356.663 152.542 356.29 156.171 354.315 157.825C351.407 160.28 348.765 158.999 342.895 157.318C333.743 154.677 325.845 154.063 317.387 155.157C297.748 157.692 280.778 175.916 283.153 201.345C285.341 224.558 303.272 241.315 315.839 252.361C360.052 291.184 345.323 332.889 341.748 342.041C329.58 373.153 298.309 395.113 257.751 395.166C240.915 395.166 216.554 390.843 192.059 375.368C191.125 374.941 190.165 373.687 191.339 371.605C193.206 366.883 200.998 353.088 204.36 349.085C216.527 363.12 237.072 376.328 259.886 377.129C291.051 378.223 311.116 361.333 318.454 339.933C326.699 315.892 317.867 291.371 294.546 269.305C274.454 250.253 256.524 232.643 255.43 202.412C254.042 163.669 287.742 140.642 319.094 142.136C320.028 142.189 275.735 110.304 218.928 129.409C191.125 138.774 174.502 155.211 166.524 164.549C165.323 165.99 166.097 167.084 166.524 167.671C167.404 168.925 186.749 195.848 186.749 195.848L151.902 187.87C151.902 187.87 150.461 187.523 149.741 188.724C138.694 207.828 122.444 263.061 158.946 313.304C158.946 313.304 189.924 264.102 251.534 259.833C255.643 259.566 255.11 261.033 252.415 261.994C197.396 282.299 175.729 322.696 161.721 353.862C160.867 355.783 158.572 356.37 156.705 354.715L156.678 354.662Z" fill="#003B71"/>
<path d="M213.378 316.666C213.378 316.666 216.82 315.119 217.781 314.585V338.466H222.13L222.077 310.396L221.383 309.942L221.17 310.049C218.021 311.623 214.819 313.091 212.098 314.211L213.378 316.693V316.666Z" fill="#76777A"/>
<path d="M236.325 324.404C239.821 324.404 241.528 326.192 241.528 329.901C241.528 333.69 239.18 336.144 235.551 336.144C232.91 336.144 231.122 334.383 230.482 333.636L229.948 333.023L228.907 336.731L229.228 336.892C230.722 337.612 232.643 338.332 235.471 338.332C241.635 338.332 246.091 334.57 246.091 329.394C246.091 324.671 242.436 323.31 240.221 322.91C242.649 321.869 244.837 319.655 244.81 316.293C244.81 312.344 241.688 309.942 236.725 309.916C232.51 309.916 230.348 312.664 230.348 312.664L232.189 315.866L232.51 314.959C233.017 313.518 234.564 312.05 236.565 312.05C238.353 312.05 240.408 313.224 240.434 316.533C240.434 319.121 239.714 322.189 236.352 322.189L234.111 322.029V324.671C234.111 324.671 235.365 324.351 236.352 324.351L236.325 324.404Z" fill="#76777A"/>
<path d="M251.988 332.729L253.135 337.265C253.135 337.265 254.923 338.306 257.458 338.279C264.662 338.252 269.678 331.502 269.678 321.816C269.678 311.036 263.088 309.862 260.259 309.889C254.789 309.889 250.947 313.598 250.974 318.908C250.974 324.084 254.122 327.286 259.192 327.286C261.754 327.286 263.755 326.272 265.249 324.377C264.956 330.408 262.581 335.904 257.671 335.958C253.722 335.984 252.015 332.729 252.015 332.729H251.988ZM259.832 324.911C256.817 324.911 255.35 322.937 255.35 318.881C255.35 314.772 257.298 312.023 260.233 312.023C263.141 312.023 265.116 314.345 265.116 317.814C265.116 321.336 263.301 324.884 259.832 324.884V324.911Z" fill="#76777A"/>
<path d="M286.808 322.109C289.263 321.015 290.838 318.801 290.838 316.159C290.838 313.251 288.73 309.862 282.753 309.862C278.217 309.862 274.828 312.797 274.828 316.64C274.828 319.521 276.776 321.549 278.884 322.323C275.388 323.71 273.414 326.379 273.441 330.007C273.441 334.944 277.203 338.252 282.806 338.252C288.249 338.252 292.172 334.383 292.172 329.074C292.172 324.164 288.543 322.59 286.835 322.109H286.808ZM278.964 316.693C278.964 315.599 279.231 311.997 282.806 311.997C286.328 311.997 286.702 315.279 286.702 316.666C286.702 317.76 286.435 321.362 282.806 321.362C279.257 321.362 278.964 317.787 278.964 316.693ZM282.806 336.091C279.844 336.091 277.816 333.583 277.816 329.821C277.816 326.058 279.818 323.55 282.779 323.524C285.741 323.524 287.742 326.032 287.742 329.794C287.742 333.61 285.821 336.091 282.779 336.091H282.806Z" fill="#76777A"/>
</g>
</g>
<defs>
<linearGradient id="paint0_linear_0_3" x1="278.654" y1="252.006" x2="175.535" y2="193.858" gradientUnits="userSpaceOnUse">
<stop stop-color="white"/>
<stop offset="0.2" stop-color="#E7EB8E"/>
<stop offset="0.76" stop-color="#AACC03"/>
<stop offset="1" stop-color="#8DC21F"/>
</linearGradient>
<linearGradient id="paint1_linear_0_3" x1="270.015" y1="213.674" x2="173.853" y2="149.54" gradientUnits="userSpaceOnUse">
<stop stop-color="#E5EA90"/>
<stop offset="0.02" stop-color="#E1E889"/>
<stop offset="0.09" stop-color="#D2E06E"/>
<stop offset="0.15" stop-color="#CADB5D"/>
<stop offset="0.2" stop-color="#C7DA58"/>
<stop offset="0.4" stop-color="#A1C710"/>
<stop offset="0.74" stop-color="#7CB923"/>
<stop offset="1" stop-color="#65B12F"/>
</linearGradient>
<linearGradient id="paint2_linear_0_3" x1="283.093" y1="194.1" x2="186.931" y2="129.939" gradientUnits="userSpaceOnUse">
<stop stop-color="#E5EA90"/>
<stop offset="0.02" stop-color="#E1E889"/>
<stop offset="0.09" stop-color="#D2E06E"/>
<stop offset="0.15" stop-color="#CADB5D"/>
<stop offset="0.2" stop-color="#C7DA58"/>
<stop offset="0.4" stop-color="#A1C710"/>
<stop offset="0.74" stop-color="#7CB923"/>
<stop offset="1" stop-color="#65B12F"/>
</linearGradient>
<linearGradient id="paint3_linear_0_3" x1="235.738" y1="265.08" x2="139.549" y2="200.919" gradientUnits="userSpaceOnUse">
<stop stop-color="#E5EA90"/>
<stop offset="0.02" stop-color="#E1E889"/>
<stop offset="0.09" stop-color="#D2E06E"/>
<stop offset="0.15" stop-color="#CADB5D"/>
<stop offset="0.2" stop-color="#C7DA58"/>
<stop offset="0.4" stop-color="#A1C710"/>
<stop offset="0.74" stop-color="#7CB923"/>
<stop offset="1" stop-color="#65B12F"/>
</linearGradient>
<linearGradient id="paint4_linear_0_3" x1="223.912" y1="282.785" x2="127.75" y2="218.651" gradientUnits="userSpaceOnUse">
<stop stop-color="#E5EA90"/>
<stop offset="0.02" stop-color="#E1E889"/>
<stop offset="0.09" stop-color="#D2E06E"/>
<stop offset="0.15" stop-color="#CADB5D"/>
<stop offset="0.2" stop-color="#C7DA58"/>
<stop offset="0.4" stop-color="#A1C710"/>
<stop offset="0.74" stop-color="#7CB923"/>
<stop offset="1" stop-color="#65B12F"/>
</linearGradient>
<clipPath id="clip0_0_3">
<rect width="500" height="500" fill="white"/>
</clipPath>
<clipPath id="clip1_0_3">
<rect width="450" height="450" fill="white" transform="translate(25 25)"/>
</clipPath>
</defs>
</svg>
